<svg width="495" height="186" viewBox="0 0 495 186" fill="none" xmlns="http://www.w3.org/2000/svg">
<rect width="495" height="186" fill="white"/>
<path d="M449.555 65.7677C454.133 62.7069 458.904 58.9042 460.014 52.9685C460.72 49.1876 459.893 45.2801 457.713 42.1057C455.533 38.9313 452.18 36.7499 448.39 36.0416C443.818 35.1869 440.354 35.8807 435.731 39.0403C432.561 34.4238 429.581 32.5256 425.009 31.6709C421.22 30.9626 417.305 31.7852 414.125 33.9578C410.946 36.1304 408.763 39.4751 408.056 43.256C406.941 49.2176 409.99 54.4821 413.185 58.9689L427.978 80.5123L449.555 65.7677Z" fill="#FF2D55"/>
<path d="M28.6 143V77.3H40.75V143H28.6ZM71.0659 144.17C56.5759 144.17 46.1359 133.19 46.1359 119.69C46.1359 106.19 56.5759 95.12 71.0659 95.12C85.5559 95.12 95.9959 106.19 95.9959 119.69C95.9959 133.19 85.5559 144.17 71.0659 144.17ZM58.2859 119.69C58.2859 126.98 63.3259 133.1 71.0659 133.1C78.8059 133.1 83.8459 126.98 83.8459 119.69C83.8459 112.4 78.8059 106.19 71.0659 106.19C63.3259 106.19 58.2859 112.4 58.2859 119.69ZM113.141 143L93.6109 96.2H108.011L117.371 122.93C118.181 125.18 118.901 127.97 119.351 130.4C119.801 127.97 120.521 125.18 121.331 122.93L130.691 96.2H144.821L125.381 143H113.141ZM166.498 144.17C152.008 144.17 142.288 133.19 142.288 119.69C142.288 106.19 152.458 95.03 166.498 95.03C180.538 95.03 190.258 106.19 190.258 119.69C190.258 121.04 190.168 122.48 189.898 124.01H154.888C156.238 129.5 160.378 133.37 166.498 133.37C171.718 133.37 175.768 130.67 177.928 127.07L187.378 134.18C183.598 140.03 175.768 144.17 166.498 144.17ZM154.888 114.92H178.018C176.668 109.7 172.258 105.47 166.318 105.47C160.558 105.47 156.238 109.34 154.888 114.92Z" fill="#FF2D55"/>
<path d="M210.294 144.17C202.374 144.17 195.984 141.47 190.854 135.98L199.044 128.51C202.464 132.38 206.064 134.27 210.024 134.27C214.164 134.27 216.504 132.2 216.504 129.41C216.504 126.98 215.334 125.63 207.954 123.92C195.444 120.95 193.554 115.28 193.554 109.34C193.554 101.15 200.034 95.03 211.014 95.03C218.574 95.03 223.614 96.92 228.384 103.13L219.564 109.88C217.314 106.28 214.434 104.84 211.284 104.84C207.954 104.84 205.434 106.1 205.434 108.98C205.434 110.6 206.154 112.04 211.734 113.48C225.324 116.99 228.474 122.03 228.474 129.05C228.474 137.69 220.644 144.17 210.294 144.17ZM233.209 161V96.2H245.179V103.76C247.699 98.63 251.929 95.21 260.119 95.21C272.989 95.21 283.249 106.28 283.249 119.78C283.249 133.28 272.989 144.17 260.119 144.17C252.109 144.17 247.879 140.93 245.359 136.07V161H233.209ZM244.999 119.78C244.999 127.07 250.129 133.19 258.139 133.19C265.879 133.19 271.099 126.8 271.099 119.69C271.099 112.4 265.879 106.19 258.139 106.19C250.129 106.19 244.999 112.49 244.999 119.78ZM309.559 144.17C296.689 144.17 286.429 133.28 286.429 119.78C286.429 106.28 296.689 95.21 309.559 95.21C317.659 95.21 321.889 98.54 324.409 103.58V96.2H336.469V143H324.679V135.35C322.159 140.66 317.929 144.17 309.559 144.17ZM298.579 119.69C298.579 126.8 303.799 133.19 311.539 133.19C319.549 133.19 324.679 127.07 324.679 119.78C324.679 112.49 319.549 106.19 311.539 106.19C303.799 106.19 298.579 112.4 298.579 119.69ZM366.008 144.17C352.598 144.17 341.888 133.19 341.888 119.6C341.888 106.01 352.328 95.12 366.638 95.03C375.188 94.94 382.118 98.27 386.078 103.76L376.718 111.41C374.558 108.17 370.958 106.1 366.818 106.1C359.078 106.1 354.038 112.31 354.038 119.6C354.038 126.89 359.348 133.1 367.088 133.1C371.768 133.1 374.828 130.76 377.258 127.52L386.078 135.17C381.668 140.84 375.188 144.17 366.008 144.17ZM410.307 144.17C395.817 144.17 386.097 133.19 386.097 119.69C386.097 106.19 396.267 95.03 410.307 95.03C424.347 95.03 434.067 106.19 434.067 119.69C434.067 121.04 433.977 122.48 433.707 124.01H398.697C400.047 129.5 404.187 133.37 410.307 133.37C415.527 133.37 419.577 130.67 421.737 127.07L431.187 134.18C427.407 140.03 419.577 144.17 410.307 144.17ZM398.697 114.92H421.827C420.477 109.7 416.067 105.47 410.127 105.47C404.367 105.47 400.047 109.34 398.697 114.92Z" fill="black"/>
</svg>
